<svg xmlns="http://www.w3.org/2000/svg" width="375" viewBox="0 0 375 375" height="375" version="1.0"><defs><clipPath id="a"><path d="M 129.769531 132.605469 L 185 132.605469 L 185 242 L 129.769531 242 Z M 129.769531 132.605469"/></clipPath><clipPath id="b"><path d="M 190 133 L 245.269531 133 L 245.269531 242.105469 L 190 242.105469 Z M 190 133"/></clipPath></defs><g clip-path="url(#a)"><path fill="#41C1BA" d="M 183.488281 194.210938 Z M 158.554688 186.0625 Z M 183.855469 140.742188 Z M 165 133.960938 Z M 138.480469 212.503906 C 138.480469 218.949219 143.316406 224.289062 149.554688 225.101562 C 150.4375 221.503906 152.308594 218.285156 154.855469 215.746094 C 158.480469 212.128906 163.488281 209.890625 169.03125 209.890625 C 170.402344 209.890625 171.519531 211.003906 171.519531 212.371094 C 171.519531 213.742188 170.402344 214.855469 169.03125 214.855469 C 168.84375 214.855469 168.664062 214.855469 168.484375 214.863281 C 170.054688 216.765625 171.539062 219.660156 171.425781 223.761719 C 171.390625 225.128906 170.242188 226.207031 168.878906 226.171875 C 167.507812 226.132812 166.429688 224.988281 166.464844 223.632812 C 166.617188 218.292969 162.746094 216.34375 162.734375 216.335938 C 162.699219 216.316406 162.671875 216.296875 162.632812 216.277344 C 161.046875 217.019531 159.609375 218.039062 158.386719 219.257812 C 155.660156 221.972656 153.96875 225.730469 153.96875 229.878906 C 153.96875 230.648438 154.027344 231.398438 154.140625 232.128906 C 156.910156 237.589844 162.59375 241.34375 169.144531 241.34375 C 175.398438 241.34375 181.09375 237.90625 184.007812 232.371094 L 184.203125 231.996094 L 184.203125 194.839844 C 183.941406 194.667969 183.707031 194.464844 183.5 194.191406 L 183.441406 194.125 C 180.960938 190.574219 177.277344 188.367188 173.332031 187.664062 C 172.816406 187.570312 172.300781 187.503906 171.773438 187.464844 C 170.722656 188.589844 169.714844 189.863281 168.992188 191.242188 C 168.269531 192.617188 167.855469 194.078125 168.054688 195.523438 C 168.242188 196.9375 167.246094 198.230469 165.835938 198.425781 C 164.417969 198.613281 163.121094 197.628906 162.925781 196.214844 C 162.566406 193.574219 163.214844 191.089844 164.390625 188.863281 C 164.425781 188.785156 164.464844 188.710938 164.503906 188.644531 C 163.496094 189.066406 162.519531 189.601562 161.589844 190.25 L 161.589844 190.238281 C 160.453125 191.027344 158.882812 190.78125 158.046875 189.667969 C 157.191406 188.535156 157.417969 186.914062 158.566406 186.0625 L 158.640625 186.003906 C 163.367188 182.726562 168.984375 181.667969 174.246094 182.605469 C 177.871094 183.25 181.328125 184.84375 184.203125 187.316406 L 184.203125 141.238281 C 184.070312 141.089844 183.960938 140.921875 183.863281 140.742188 L 183.835938 140.695312 C 182.164062 137.175781 179.222656 134.65625 175.824219 133.4375 C 172.421875 132.21875 168.542969 132.292969 165.007812 133.960938 C 161.476562 135.628906 158.949219 138.5625 157.730469 141.953125 C 156.507812 145.34375 156.582031 149.210938 158.253906 152.734375 C 158.800781 153.894531 158.300781 155.28125 157.136719 155.832031 C 155.972656 156.378906 154.582031 155.878906 154.027344 154.71875 C 152.75 152.019531 152.175781 149.164062 152.234375 146.375 C 143.863281 147.308594 137.332031 154.417969 137.332031 163.007812 C 137.332031 164.386719 137.5 165.761719 137.839844 167.09375 C 140.113281 166.746094 142.480469 166.847656 144.847656 167.449219 C 149.179688 168.5625 153.085938 171.328125 155.539062 175.476562 C 156.148438 176.507812 155.800781 177.828125 154.777344 178.4375 C 153.746094 179.046875 152.421875 178.699219 151.808594 177.675781 C 148.425781 171.964844 141.476562 169.726562 135.378906 172.261719 C 131.835938 176.132812 129.835938 181.207031 129.835938 186.605469 C 129.835938 194.398438 134.0625 201.488281 140.78125 205.234375 C 139.296875 207.351562 138.488281 209.863281 138.488281 212.503906 Z M 138.480469 212.503906" fill-rule="evenodd"/></g><g clip-path="url(#b)"><path fill="#F7F7F7" d="M 191.550781 180.496094 Z M 216.484375 188.644531 Z M 191.183594 233.964844 Z M 210.039062 240.746094 Z M 236.5625 162.203125 C 236.5625 155.757812 231.722656 150.417969 225.484375 149.605469 C 224.601562 153.203125 222.730469 156.425781 220.183594 158.960938 C 216.558594 162.578125 211.550781 164.816406 206.007812 164.816406 C 204.636719 164.816406 203.519531 163.703125 203.519531 162.335938 C 203.519531 160.96875 204.636719 159.851562 206.007812 159.851562 C 206.195312 159.851562 206.375 159.851562 206.554688 159.84375 C 204.984375 157.941406 203.5 155.046875 203.613281 150.945312 C 203.652344 149.578125 204.796875 148.5 206.160156 148.535156 C 207.53125 148.574219 208.609375 149.71875 208.574219 151.074219 C 208.421875 156.414062 212.292969 158.363281 212.304688 158.371094 C 212.339844 158.390625 212.367188 158.410156 212.40625 158.429688 C 213.996094 157.679688 215.433594 156.667969 216.652344 155.449219 C 219.378906 152.734375 221.070312 148.976562 221.070312 144.828125 C 221.070312 144.058594 221.011719 143.308594 220.898438 142.578125 C 218.128906 137.117188 212.445312 133.363281 205.90625 133.363281 C 199.648438 133.363281 193.957031 136.800781 191.042969 142.335938 L 190.84375 142.710938 L 190.84375 179.871094 C 191.109375 180.027344 191.34375 180.246094 191.539062 180.515625 L 191.605469 180.589844 C 194.085938 184.140625 197.769531 186.351562 201.714844 187.054688 C 202.230469 187.148438 202.75 187.214844 203.273438 187.25 C 204.328125 186.136719 205.332031 184.851562 206.054688 183.476562 C 206.777344 182.097656 207.191406 180.636719 206.996094 179.195312 C 206.808594 177.78125 207.792969 176.488281 209.210938 176.292969 C 210.632812 176.105469 211.925781 177.097656 212.125 178.5 C 212.480469 181.144531 211.832031 183.625 210.660156 185.855469 C 210.621094 185.929688 210.585938 186.003906 210.535156 186.078125 C 211.542969 185.660156 212.519531 185.125 213.457031 184.476562 L 213.46875 184.488281 C 214.605469 183.699219 216.175781 183.945312 217.011719 185.058594 C 217.863281 186.191406 217.640625 187.8125 216.492188 188.664062 L 216.417969 188.722656 C 211.691406 192 206.074219 193.058594 200.8125 192.121094 C 197.1875 191.476562 193.730469 189.882812 190.855469 187.410156 L 190.855469 233.484375 C 190.988281 233.636719 191.097656 233.804688 191.191406 233.984375 L 191.222656 234.03125 C 192.894531 237.550781 195.835938 240.070312 199.234375 241.289062 C 202.636719 242.507812 206.515625 242.429688 210.046875 240.765625 C 213.582031 239.097656 216.109375 236.164062 217.328125 232.773438 C 218.550781 229.382812 218.476562 225.515625 216.804688 221.992188 C 216.25 220.832031 216.746094 219.445312 217.921875 218.902344 C 219.085938 218.347656 220.476562 218.855469 221.03125 220.015625 C 222.308594 222.714844 222.882812 225.570312 222.824219 228.363281 C 231.195312 227.425781 237.726562 220.316406 237.726562 211.726562 C 237.726562 210.351562 237.554688 208.972656 237.21875 207.640625 C 234.945312 207.988281 232.578125 207.886719 230.210938 207.285156 C 225.878906 206.171875 221.96875 203.410156 219.519531 199.269531 C 218.90625 198.238281 219.253906 196.917969 220.28125 196.308594 C 221.3125 195.699219 222.636719 196.046875 223.25 197.066406 C 226.628906 202.78125 233.582031 205.019531 239.679688 202.480469 C 243.210938 198.613281 245.222656 193.535156 245.222656 188.140625 C 245.222656 180.347656 240.996094 173.257812 234.277344 169.507812 C 235.761719 167.394531 236.5625 164.882812 236.5625 162.242188 Z M 236.5625 162.203125" fill-rule="evenodd"/></g></svg>