<svg xmlns="http://www.w3.org/2000/svg" width="375" viewBox="0 0 375 375" height="375" version="1.0"><defs><clipPath id="a"><path d="M 129.769531 95.125 L 185 95.125 L 185 204 L 129.769531 204 Z M 129.769531 95.125"/></clipPath><clipPath id="b"><path d="M 190 95.125 L 245.269531 95.125 L 245.269531 204.625 L 190 204.625 Z M 190 95.125"/></clipPath></defs><g clip-path="url(#a)"><path fill="#41C1BA" d="M 183.488281 156.730469 Z M 158.554688 148.582031 Z M 183.855469 103.265625 Z M 165 96.484375 Z M 138.480469 175.027344 C 138.480469 181.46875 143.316406 186.808594 149.554688 187.625 C 150.4375 184.027344 152.308594 180.804688 154.855469 178.265625 C 158.480469 174.652344 163.488281 172.414062 169.03125 172.414062 C 170.402344 172.414062 171.519531 173.527344 171.519531 174.894531 C 171.519531 176.261719 170.402344 177.375 169.03125 177.375 C 168.84375 177.375 168.664062 177.375 168.484375 177.386719 C 170.054688 179.289062 171.539062 182.183594 171.425781 186.285156 C 171.390625 187.652344 170.242188 188.730469 168.878906 188.691406 C 167.507812 188.65625 166.429688 187.511719 166.464844 186.152344 C 166.617188 180.8125 162.746094 178.867188 162.734375 178.855469 C 162.699219 178.839844 162.671875 178.820312 162.632812 178.800781 C 161.046875 179.539062 159.609375 180.5625 158.386719 181.777344 C 155.660156 184.496094 153.96875 188.25 153.96875 192.402344 C 153.96875 193.167969 154.027344 193.917969 154.140625 194.648438 C 156.910156 200.109375 162.59375 203.867188 169.144531 203.867188 C 175.398438 203.867188 181.09375 200.429688 184.007812 194.894531 L 184.203125 194.519531 L 184.203125 157.359375 C 183.941406 157.191406 183.707031 156.984375 183.5 156.714844 L 183.441406 156.648438 C 180.960938 153.097656 177.277344 150.886719 173.332031 150.183594 C 172.816406 150.089844 172.300781 150.023438 171.773438 149.988281 C 170.722656 151.113281 169.714844 152.386719 168.992188 153.761719 C 168.269531 155.140625 167.855469 156.601562 168.054688 158.042969 C 168.242188 159.457031 167.246094 160.75 165.835938 160.945312 C 164.417969 161.132812 163.121094 160.152344 162.925781 158.738281 C 162.566406 156.09375 163.214844 153.613281 164.390625 151.382812 C 164.425781 151.308594 164.464844 151.234375 164.503906 151.167969 C 163.496094 151.589844 162.519531 152.125 161.589844 152.769531 L 161.589844 152.761719 C 160.453125 153.546875 158.882812 153.304688 158.046875 152.1875 C 157.191406 151.054688 157.417969 149.433594 158.566406 148.582031 L 158.640625 148.527344 C 163.367188 145.246094 168.984375 144.191406 174.246094 145.125 C 177.871094 145.773438 181.328125 147.363281 184.203125 149.835938 L 184.203125 103.761719 C 184.070312 103.613281 183.960938 103.441406 183.863281 103.265625 L 183.835938 103.21875 C 182.164062 99.695312 179.222656 97.175781 175.824219 95.957031 C 172.421875 94.742188 168.542969 94.816406 165.007812 96.484375 C 161.476562 98.152344 158.949219 101.082031 157.730469 104.472656 C 156.507812 107.863281 156.582031 111.734375 158.253906 115.253906 C 158.800781 116.417969 158.300781 117.804688 157.136719 118.355469 C 155.972656 118.898438 154.582031 118.402344 154.027344 117.242188 C 152.75 114.542969 152.175781 111.6875 152.234375 108.894531 C 143.863281 109.832031 137.332031 116.941406 137.332031 125.53125 C 137.332031 126.90625 137.5 128.285156 137.839844 129.613281 C 140.113281 129.269531 142.480469 129.371094 144.847656 129.96875 C 149.179688 131.085938 153.085938 133.847656 155.539062 137.996094 C 156.148438 139.027344 155.800781 140.347656 154.777344 140.957031 C 153.746094 141.566406 152.421875 141.21875 151.808594 140.199219 C 148.425781 134.484375 141.476562 132.246094 135.378906 134.785156 C 131.835938 138.652344 129.835938 143.730469 129.835938 149.125 C 129.835938 156.917969 134.0625 164.011719 140.78125 167.757812 C 139.296875 169.875 138.488281 172.382812 138.488281 175.027344 Z M 138.480469 175.027344" fill-rule="evenodd"/></g><g clip-path="url(#b)"><path fill="#F7F7F7" d="M 191.550781 143.019531 Z M 216.484375 151.167969 Z M 191.183594 196.484375 Z M 210.039062 203.265625 Z M 236.5625 124.726562 C 236.5625 118.28125 231.722656 112.941406 225.484375 112.125 C 224.601562 115.722656 222.730469 118.945312 220.183594 121.484375 C 216.558594 125.101562 211.550781 127.339844 206.007812 127.339844 C 204.636719 127.339844 203.519531 126.222656 203.519531 124.855469 C 203.519531 123.488281 204.636719 122.375 206.007812 122.375 C 206.195312 122.375 206.375 122.375 206.554688 122.363281 C 204.984375 120.464844 203.5 117.570312 203.613281 113.464844 C 203.652344 112.097656 204.796875 111.019531 206.160156 111.058594 C 207.53125 111.097656 208.609375 112.238281 208.574219 113.597656 C 208.421875 118.9375 212.292969 120.882812 212.304688 120.894531 C 212.339844 120.914062 212.367188 120.929688 212.40625 120.949219 C 213.996094 120.199219 215.433594 119.1875 216.652344 117.972656 C 219.378906 115.253906 221.070312 111.5 221.070312 107.347656 C 221.070312 106.582031 221.011719 105.832031 220.898438 105.101562 C 218.128906 99.640625 212.445312 95.882812 205.90625 95.882812 C 199.648438 95.882812 193.957031 99.320312 191.042969 104.859375 L 190.84375 105.230469 L 190.84375 142.390625 C 191.109375 142.550781 191.34375 142.765625 191.539062 143.039062 L 191.605469 143.113281 C 194.085938 146.664062 197.769531 148.871094 201.714844 149.574219 C 202.230469 149.667969 202.75 149.734375 203.273438 149.773438 C 204.328125 148.65625 205.332031 147.375 206.054688 145.996094 C 206.777344 144.621094 207.191406 143.160156 206.996094 141.714844 C 206.808594 140.300781 207.792969 139.007812 209.210938 138.8125 C 210.632812 138.625 211.925781 139.617188 212.125 141.023438 C 212.480469 143.664062 211.832031 146.148438 210.660156 148.375 C 210.621094 148.453125 210.585938 148.527344 210.535156 148.601562 C 211.542969 148.179688 212.519531 147.644531 213.457031 147 L 213.46875 147.007812 C 214.605469 146.222656 216.175781 146.464844 217.011719 147.582031 C 217.863281 148.714844 217.640625 150.335938 216.492188 151.1875 L 216.417969 151.242188 C 211.691406 154.519531 206.074219 155.578125 200.8125 154.644531 C 197.1875 153.996094 193.730469 152.40625 190.855469 149.929688 L 190.855469 196.007812 C 190.988281 196.15625 191.097656 196.324219 191.191406 196.503906 L 191.222656 196.550781 C 192.894531 200.074219 195.835938 202.59375 199.234375 203.808594 C 202.636719 205.027344 206.515625 204.953125 210.046875 203.285156 C 213.582031 201.617188 216.109375 198.6875 217.328125 195.296875 C 218.550781 191.90625 218.476562 188.035156 216.804688 184.515625 C 216.25 183.351562 216.746094 181.964844 217.921875 181.421875 C 219.085938 180.871094 220.476562 181.375 221.03125 182.539062 C 222.308594 185.234375 222.882812 188.09375 222.824219 190.882812 C 231.195312 189.945312 237.726562 182.835938 237.726562 174.25 C 237.726562 172.871094 237.554688 171.496094 237.21875 170.164062 C 234.945312 170.511719 232.578125 170.40625 230.210938 169.808594 C 225.878906 168.695312 221.96875 165.929688 219.519531 161.789062 C 218.90625 160.757812 219.253906 159.4375 220.28125 158.832031 C 221.3125 158.222656 222.636719 158.566406 223.25 159.589844 C 226.628906 165.300781 233.582031 167.542969 239.679688 165.003906 C 243.210938 161.132812 245.222656 156.058594 245.222656 150.664062 C 245.222656 142.867188 240.996094 135.777344 234.277344 132.03125 C 235.761719 129.914062 236.5625 127.402344 236.5625 124.761719 Z M 236.5625 124.726562" fill-rule="evenodd"/></g><g fill="#F7F7F7"><g><g><path d="M 22.90625 -22.75 C 22.882812 -22.539062 22.800781 -22.367188 22.65625 -22.234375 C 22.507812 -22.109375 22.332031 -22.046875 22.125 -22.046875 L 10.421875 -22.046875 C 10.367188 -22.046875 10.3125 -22.019531 10.25 -21.96875 C 10.1875 -21.914062 10.15625 -21.847656 10.15625 -21.765625 L 9.5625 -17.0625 C 9.5625 -16.875 9.640625 -16.78125 9.796875 -16.78125 L 17.1875 -16.78125 C 17.394531 -16.78125 17.554688 -16.710938 17.671875 -16.578125 C 17.796875 -16.453125 17.84375 -16.285156 17.8125 -16.078125 L 17.296875 -11.921875 C 17.222656 -11.453125 16.960938 -11.21875 16.515625 -11.21875 L 9.125 -11.21875 C 8.96875 -11.21875 8.863281 -11.125 8.8125 -10.9375 L 7.546875 -0.71875 C 7.515625 -0.5 7.429688 -0.320312 7.296875 -0.1875 C 7.171875 -0.0625 7.003906 0 6.796875 0 L 1.8125 0 C 1.601562 0 1.4375 -0.0625 1.3125 -0.1875 C 1.195312 -0.320312 1.15625 -0.5 1.1875 -0.71875 L 4.421875 -26.9375 C 4.453125 -27.144531 4.535156 -27.316406 4.671875 -27.453125 C 4.816406 -27.585938 5 -27.65625 5.21875 -27.65625 L 22.828125 -27.65625 C 23.035156 -27.65625 23.191406 -27.585938 23.296875 -27.453125 C 23.410156 -27.316406 23.453125 -27.144531 23.421875 -26.9375 Z M 22.90625 -22.75" transform="translate(58.796 244.002)"/></g></g></g><g fill="#F7F7F7"><g><g><path d="M 15.125 -19.703125 C 15.207031 -20.179688 15.472656 -20.421875 15.921875 -20.421875 L 20.890625 -20.421875 C 21.109375 -20.421875 21.269531 -20.351562 21.375 -20.21875 C 21.476562 -20.09375 21.515625 -19.921875 21.484375 -19.703125 L 19.15625 -0.71875 C 19.132812 -0.5 19.054688 -0.320312 18.921875 -0.1875 C 18.785156 -0.0625 18.613281 0 18.40625 0 L 13.4375 0 C 13.21875 0 13.050781 -0.0625 12.9375 -0.1875 C 12.820312 -0.320312 12.773438 -0.5 12.796875 -0.71875 L 12.921875 -1.65625 C 12.941406 -1.789062 12.921875 -1.867188 12.859375 -1.890625 C 12.796875 -1.921875 12.722656 -1.882812 12.640625 -1.78125 C 11.453125 -0.382812 9.910156 0.3125 8.015625 0.3125 C 6.359375 0.3125 4.890625 -0.25 3.609375 -1.375 C 2.335938 -2.507812 1.554688 -3.972656 1.265625 -5.765625 C 1.128906 -6.609375 1.0625 -7.359375 1.0625 -8.015625 C 1.0625 -8.546875 1.113281 -9.3125 1.21875 -10.3125 C 1.4375 -12.101562 1.910156 -13.757812 2.640625 -15.28125 C 3.429688 -16.914062 4.546875 -18.238281 5.984375 -19.25 C 7.421875 -20.269531 8.957031 -20.78125 10.59375 -20.78125 C 12.5625 -20.78125 13.941406 -20.171875 14.734375 -18.953125 C 14.785156 -18.847656 14.847656 -18.804688 14.921875 -18.828125 C 15.003906 -18.859375 15.046875 -18.941406 15.046875 -19.078125 Z M 12.875 -6.953125 C 13.425781 -7.847656 13.78125 -8.925781 13.9375 -10.1875 C 13.988281 -10.820312 14.015625 -11.257812 14.015625 -11.5 C 14.015625 -12.363281 13.898438 -13.085938 13.671875 -13.671875 C 13.242188 -14.566406 12.554688 -15.015625 11.609375 -15.015625 C 10.609375 -15.015625 9.789062 -14.550781 9.15625 -13.625 C 8.601562 -12.8125 8.222656 -11.664062 8.015625 -10.1875 C 7.960938 -9.664062 7.9375 -9.296875 7.9375 -9.078125 C 7.9375 -8.242188 8.054688 -7.519531 8.296875 -6.90625 C 8.660156 -5.9375 9.367188 -5.453125 10.421875 -5.453125 C 11.421875 -5.453125 12.238281 -5.953125 12.875 -6.953125 Z M 12.875 -6.953125" transform="translate(80.121 244.002)"/></g></g></g><g fill="#F7F7F7"><g><g><path d="M 21.09375 -15.28125 C 21.332031 -14.382812 21.453125 -13.425781 21.453125 -12.40625 C 21.453125 -11.957031 21.398438 -11.257812 21.296875 -10.3125 C 21.128906 -8.65625 20.742188 -7.140625 20.140625 -5.765625 C 19.398438 -3.972656 18.257812 -2.507812 16.71875 -1.375 C 15.1875 -0.25 13.585938 0.3125 11.921875 0.3125 C 9.972656 0.3125 8.609375 -0.382812 7.828125 -1.78125 C 7.742188 -1.882812 7.664062 -1.921875 7.59375 -1.890625 C 7.53125 -1.867188 7.488281 -1.789062 7.46875 -1.65625 L 7.390625 -0.71875 C 7.304688 -0.238281 7.039062 0 6.59375 0 L 1.625 0 C 1.40625 0 1.238281 -0.0625 1.125 -0.1875 C 1.007812 -0.320312 0.960938 -0.5 0.984375 -0.71875 L 4.21875 -26.9375 C 4.25 -27.144531 4.335938 -27.316406 4.484375 -27.453125 C 4.628906 -27.585938 4.804688 -27.65625 5.015625 -27.65625 L 10 -27.65625 C 10.207031 -27.65625 10.363281 -27.585938 10.46875 -27.453125 C 10.570312 -27.316406 10.613281 -27.144531 10.59375 -26.9375 L 9.640625 -19.078125 C 9.609375 -18.941406 9.625 -18.859375 9.6875 -18.828125 C 9.757812 -18.804688 9.835938 -18.847656 9.921875 -18.953125 C 10.992188 -20.171875 12.519531 -20.78125 14.5 -20.78125 C 16.132812 -20.78125 17.550781 -20.269531 18.75 -19.25 C 19.945312 -18.238281 20.726562 -16.914062 21.09375 -15.28125 Z M 13.4375 -6.90625 C 13.957031 -7.75 14.296875 -8.84375 14.453125 -10.1875 C 14.503906 -10.507812 14.53125 -10.945312 14.53125 -11.5 C 14.53125 -12.28125 14.425781 -12.988281 14.21875 -13.625 C 13.800781 -14.550781 13.09375 -15.015625 12.09375 -15.015625 C 11.113281 -15.015625 10.304688 -14.566406 9.671875 -13.671875 C 9.097656 -12.742188 8.734375 -11.582031 8.578125 -10.1875 C 8.523438 -9.613281 8.5 -9.207031 8.5 -8.96875 C 8.5 -8.207031 8.601562 -7.535156 8.8125 -6.953125 C 9.226562 -5.953125 9.925781 -5.453125 10.90625 -5.453125 C 11.90625 -5.453125 12.75 -5.9375 13.4375 -6.90625 Z M 13.4375 -6.90625" transform="translate(101.565 244.002)"/></g></g></g><g fill="#F7F7F7"><g><g><path d="M 13.90625 -20.703125 C 14.695312 -20.703125 15.351562 -20.554688 15.875 -20.265625 C 16.082031 -20.128906 16.1875 -19.941406 16.1875 -19.703125 C 16.1875 -19.578125 16.175781 -19.472656 16.15625 -19.390625 L 14.65625 -14.34375 C 14.601562 -14.101562 14.507812 -13.945312 14.375 -13.875 C 14.25 -13.8125 14.066406 -13.804688 13.828125 -13.859375 C 13.503906 -13.941406 13.117188 -13.984375 12.671875 -13.984375 C 12.253906 -13.984375 11.941406 -13.957031 11.734375 -13.90625 C 10.941406 -13.800781 10.234375 -13.484375 9.609375 -12.953125 C 8.992188 -12.429688 8.632812 -11.734375 8.53125 -10.859375 L 7.3125 -0.71875 C 7.226562 -0.238281 6.960938 0 6.515625 0 L 1.546875 0 C 1.328125 0 1.164062 -0.0625 1.0625 -0.1875 C 0.957031 -0.320312 0.921875 -0.5 0.953125 -0.71875 L 3.28125 -19.703125 C 3.300781 -19.921875 3.378906 -20.09375 3.515625 -20.21875 C 3.648438 -20.351562 3.820312 -20.421875 4.03125 -20.421875 L 9 -20.421875 C 9.21875 -20.421875 9.382812 -20.351562 9.5 -20.21875 C 9.613281 -20.09375 9.660156 -19.921875 9.640625 -19.703125 L 9.515625 -18.84375 C 9.492188 -18.707031 9.515625 -18.625 9.578125 -18.59375 C 9.640625 -18.570312 9.710938 -18.613281 9.796875 -18.71875 C 10.929688 -20.039062 12.300781 -20.703125 13.90625 -20.703125 Z M 13.90625 -20.703125" transform="translate(123.087 244.002)"/></g></g></g><g fill="#F7F7F7"><g><g><path d="M 6.984375 -21.765625 C 5.984375 -21.765625 5.179688 -22.0625 4.578125 -22.65625 C 3.972656 -23.25 3.671875 -24.03125 3.671875 -25 C 3.671875 -26.238281 4.070312 -27.257812 4.875 -28.0625 C 5.675781 -28.863281 6.695312 -29.265625 7.9375 -29.265625 C 8.96875 -29.265625 9.773438 -28.984375 10.359375 -28.421875 C 10.953125 -27.859375 11.25 -27.101562 11.25 -26.15625 C 11.25 -24.863281 10.847656 -23.804688 10.046875 -22.984375 C 9.242188 -22.171875 8.222656 -21.765625 6.984375 -21.765625 Z M 1.859375 0 C 1.648438 0 1.484375 -0.0625 1.359375 -0.1875 C 1.242188 -0.320312 1.195312 -0.5 1.21875 -0.71875 L 3.5625 -19.703125 C 3.632812 -20.179688 3.894531 -20.421875 4.34375 -20.421875 L 9.328125 -20.421875 C 9.535156 -20.421875 9.691406 -20.351562 9.796875 -20.21875 C 9.898438 -20.09375 9.941406 -19.921875 9.921875 -19.703125 L 7.578125 -0.71875 C 7.554688 -0.5 7.476562 -0.320312 7.34375 -0.1875 C 7.21875 -0.0625 7.046875 0 6.828125 0 Z M 1.859375 0" transform="translate(138.015 244.002)"/></g></g></g><g fill="#F7F7F7"><g><g><path d="M 9.921875 0.3125 C 7.835938 0.3125 6.078125 -0.222656 4.640625 -1.296875 C 3.203125 -2.378906 2.257812 -3.867188 1.8125 -5.765625 C 1.632812 -6.503906 1.546875 -7.347656 1.546875 -8.296875 C 1.546875 -8.984375 1.582031 -9.65625 1.65625 -10.3125 C 1.863281 -12.101562 2.285156 -13.617188 2.921875 -14.859375 C 3.816406 -16.691406 5.113281 -18.128906 6.8125 -19.171875 C 8.507812 -20.210938 10.410156 -20.734375 12.515625 -20.734375 C 14.628906 -20.734375 16.425781 -20.191406 17.90625 -19.109375 C 19.394531 -18.035156 20.3125 -16.671875 20.65625 -15.015625 C 20.757812 -14.566406 20.8125 -14.128906 20.8125 -13.703125 C 20.8125 -13.253906 20.578125 -12.992188 20.109375 -12.921875 L 15.125 -12.171875 L 14.9375 -12.125 C 14.769531 -12.125 14.640625 -12.171875 14.546875 -12.265625 C 14.460938 -12.359375 14.421875 -12.46875 14.421875 -12.59375 L 14.34375 -13.15625 C 14.257812 -13.726562 13.976562 -14.195312 13.5 -14.5625 C 13.03125 -14.9375 12.453125 -15.125 11.765625 -15.125 C 10.421875 -15.125 9.460938 -14.503906 8.890625 -13.265625 C 8.515625 -12.535156 8.25 -11.535156 8.09375 -10.265625 C 8.019531 -9.710938 7.984375 -9.203125 7.984375 -8.734375 C 7.984375 -8.179688 8.019531 -7.707031 8.09375 -7.3125 C 8.4375 -5.96875 9.269531 -5.296875 10.59375 -5.296875 C 11.21875 -5.296875 11.789062 -5.460938 12.3125 -5.796875 C 12.84375 -6.140625 13.269531 -6.644531 13.59375 -7.3125 L 13.625 -7.5 C 13.675781 -7.632812 13.796875 -7.773438 13.984375 -7.921875 C 14.171875 -8.066406 14.351562 -8.125 14.53125 -8.09375 L 19.3125 -7.3125 C 19.789062 -7.226562 19.960938 -6.960938 19.828125 -6.515625 C 19.742188 -6.222656 19.625 -5.894531 19.46875 -5.53125 C 18.65625 -3.6875 17.382812 -2.25 15.65625 -1.21875 C 13.9375 -0.195312 12.023438 0.3125 9.921875 0.3125 Z M 9.921875 0.3125" transform="translate(148.164 244.002)"/></g></g></g><g fill="#F7F7F7"><g><g><path d="M 6.984375 -21.765625 C 5.984375 -21.765625 5.179688 -22.0625 4.578125 -22.65625 C 3.972656 -23.25 3.671875 -24.03125 3.671875 -25 C 3.671875 -26.238281 4.070312 -27.257812 4.875 -28.0625 C 5.675781 -28.863281 6.695312 -29.265625 7.9375 -29.265625 C 8.96875 -29.265625 9.773438 -28.984375 10.359375 -28.421875 C 10.953125 -27.859375 11.25 -27.101562 11.25 -26.15625 C 11.25 -24.863281 10.847656 -23.804688 10.046875 -22.984375 C 9.242188 -22.171875 8.222656 -21.765625 6.984375 -21.765625 Z M 1.859375 0 C 1.648438 0 1.484375 -0.0625 1.359375 -0.1875 C 1.242188 -0.320312 1.195312 -0.5 1.21875 -0.71875 L 3.5625 -19.703125 C 3.632812 -20.179688 3.894531 -20.421875 4.34375 -20.421875 L 9.328125 -20.421875 C 9.535156 -20.421875 9.691406 -20.351562 9.796875 -20.21875 C 9.898438 -20.09375 9.941406 -19.921875 9.921875 -19.703125 L 7.578125 -0.71875 C 7.554688 -0.5 7.476562 -0.320312 7.34375 -0.1875 C 7.21875 -0.0625 7.046875 0 6.828125 0 Z M 1.859375 0" transform="translate(169.016 244.002)"/></g></g></g><g fill="#F7F7F7"><g><g><path d="M 9.875 0.3125 C 7.582031 0.3125 5.710938 -0.316406 4.265625 -1.578125 C 2.816406 -2.835938 1.945312 -4.550781 1.65625 -6.71875 C 1.582031 -7.269531 1.546875 -7.832031 1.546875 -8.40625 C 1.546875 -9.019531 1.582031 -9.640625 1.65625 -10.265625 C 1.8125 -11.535156 2.128906 -12.8125 2.609375 -14.09375 C 3.472656 -16.175781 4.773438 -17.800781 6.515625 -18.96875 C 8.253906 -20.144531 10.253906 -20.734375 12.515625 -20.734375 C 14.753906 -20.734375 16.582031 -20.144531 18 -18.96875 C 19.425781 -17.800781 20.3125 -16.191406 20.65625 -14.140625 C 20.757812 -13.535156 20.8125 -12.828125 20.8125 -12.015625 C 20.8125 -11.273438 20.785156 -10.71875 20.734375 -10.34375 C 20.578125 -9.03125 20.289062 -7.875 19.875 -6.875 C 19.082031 -4.664062 17.800781 -2.914062 16.03125 -1.625 C 14.269531 -0.332031 12.21875 0.3125 9.875 0.3125 Z M 10.59375 -5.296875 C 11.320312 -5.296875 11.960938 -5.535156 12.515625 -6.015625 C 13.066406 -6.503906 13.503906 -7.171875 13.828125 -8.015625 C 14.035156 -8.597656 14.207031 -9.347656 14.34375 -10.265625 C 14.394531 -10.847656 14.421875 -11.257812 14.421875 -11.5 C 14.421875 -12.625 14.203125 -13.507812 13.765625 -14.15625 C 13.328125 -14.800781 12.660156 -15.125 11.765625 -15.125 C 10.265625 -15.125 9.210938 -14.269531 8.609375 -12.5625 C 8.316406 -11.90625 8.132812 -11.140625 8.0625 -10.265625 C 7.976562 -9.765625 7.9375 -9.28125 7.9375 -8.8125 C 7.9375 -7.757812 8.160156 -6.910156 8.609375 -6.265625 C 9.054688 -5.617188 9.71875 -5.296875 10.59375 -5.296875 Z M 10.59375 -5.296875" transform="translate(179.165 244.002)"/></g></g></g><g fill="#F7F7F7"><g><g><path d="M 10.90625 0.3125 C 8.082031 0.3125 5.851562 -0.445312 4.21875 -1.96875 C 2.59375 -3.5 1.78125 -5.554688 1.78125 -8.140625 C 1.78125 -8.765625 1.804688 -9.25 1.859375 -9.59375 L 2.921875 -18.125 C 3.160156 -20.070312 3.789062 -21.789062 4.8125 -23.28125 C 5.84375 -24.769531 7.1875 -25.921875 8.84375 -26.734375 C 10.507812 -27.554688 12.351562 -27.96875 14.375 -27.96875 C 17.21875 -27.96875 19.460938 -27.25 21.109375 -25.8125 C 22.753906 -24.375 23.578125 -22.429688 23.578125 -19.984375 C 23.578125 -19.722656 23.550781 -19.273438 23.5 -18.640625 C 23.5 -18.398438 23.265625 -18.253906 22.796875 -18.203125 L 17.78125 -17.859375 L 17.609375 -17.859375 C 17.242188 -17.859375 17.0625 -17.921875 17.0625 -18.046875 L 17.109375 -18.28125 C 17.128906 -18.445312 17.140625 -18.671875 17.140625 -18.953125 C 17.140625 -20.015625 16.828125 -20.847656 16.203125 -21.453125 C 15.585938 -22.054688 14.753906 -22.359375 13.703125 -22.359375 C 12.546875 -22.359375 11.554688 -21.984375 10.734375 -21.234375 C 9.921875 -20.484375 9.4375 -19.5 9.28125 -18.28125 L 8.171875 -9.328125 C 8.148438 -9.191406 8.140625 -8.992188 8.140625 -8.734375 C 8.140625 -7.679688 8.453125 -6.84375 9.078125 -6.21875 C 9.710938 -5.601562 10.554688 -5.296875 11.609375 -5.296875 C 12.796875 -5.296875 13.789062 -5.660156 14.59375 -6.390625 C 15.394531 -7.128906 15.863281 -8.109375 16 -9.328125 C 16.019531 -9.453125 16.097656 -9.5625 16.234375 -9.65625 C 16.367188 -9.75 16.539062 -9.78125 16.75 -9.75 L 21.71875 -9.484375 C 22.164062 -9.429688 22.378906 -9.363281 22.359375 -9.28125 L 22.359375 -9.078125 C 22.117188 -7.210938 21.484375 -5.566406 20.453125 -4.140625 C 19.429688 -2.722656 18.097656 -1.625 16.453125 -0.84375 C 14.804688 -0.0703125 12.957031 0.3125 10.90625 0.3125 Z M 10.90625 0.3125" transform="translate(208.191 244.002)"/></g></g></g><g fill="#F7F7F7"><g><g><path d="M 14.734375 -19.703125 C 14.753906 -19.921875 14.832031 -20.09375 14.96875 -20.21875 C 15.101562 -20.351562 15.273438 -20.421875 15.484375 -20.421875 L 20.46875 -20.421875 C 20.675781 -20.421875 20.835938 -20.351562 20.953125 -20.21875 C 21.066406 -20.09375 21.113281 -19.921875 21.09375 -19.703125 L 18.765625 -0.71875 C 18.679688 -0.238281 18.414062 0 17.96875 0 L 13 0 C 12.78125 0 12.617188 -0.0625 12.515625 -0.1875 C 12.410156 -0.320312 12.375 -0.5 12.40625 -0.71875 L 12.515625 -1.703125 C 12.515625 -1.828125 12.488281 -1.898438 12.4375 -1.921875 C 12.382812 -1.953125 12.304688 -1.914062 12.203125 -1.8125 C 10.992188 -0.394531 9.320312 0.3125 7.1875 0.3125 C 5.445312 0.3125 4.0625 -0.191406 3.03125 -1.203125 C 2.007812 -2.210938 1.5 -3.65625 1.5 -5.53125 C 1.5 -6.113281 1.523438 -6.5625 1.578125 -6.875 L 3.15625 -19.703125 C 3.1875 -19.921875 3.265625 -20.09375 3.390625 -20.21875 C 3.523438 -20.351562 3.695312 -20.421875 3.90625 -20.421875 L 8.890625 -20.421875 C 9.097656 -20.421875 9.257812 -20.351562 9.375 -20.21875 C 9.5 -20.09375 9.546875 -19.921875 9.515625 -19.703125 L 8.09375 -8.375 L 8.0625 -7.859375 C 8.0625 -7.066406 8.257812 -6.445312 8.65625 -6 C 9.050781 -5.550781 9.601562 -5.328125 10.3125 -5.328125 C 11.019531 -5.328125 11.632812 -5.550781 12.15625 -6 C 12.6875 -6.445312 13.054688 -7.039062 13.265625 -7.78125 Z M 14.734375 -19.703125" transform="translate(231.53 244.002)"/></g></g></g><g fill="#F7F7F7"><g><g><path d="M 14.578125 -20.734375 C 16.390625 -20.734375 17.835938 -20.195312 18.921875 -19.125 C 20.003906 -18.0625 20.546875 -16.582031 20.546875 -14.6875 C 20.546875 -14.457031 20.519531 -14.050781 20.46875 -13.46875 L 18.875 -0.71875 C 18.851562 -0.5 18.773438 -0.320312 18.640625 -0.1875 C 18.515625 -0.0625 18.34375 0 18.125 0 L 13.15625 0 C 12.945312 0 12.78125 -0.0625 12.65625 -0.1875 C 12.539062 -0.320312 12.492188 -0.5 12.515625 -0.71875 L 13.9375 -12.046875 L 13.984375 -12.5625 C 13.984375 -13.320312 13.78125 -13.9375 13.375 -14.40625 C 12.96875 -14.882812 12.40625 -15.125 11.6875 -15.125 C 10.925781 -15.125 10.257812 -14.84375 9.6875 -14.28125 C 9.125 -13.71875 8.789062 -12.972656 8.6875 -12.046875 L 7.3125 -0.71875 C 7.226562 -0.238281 6.960938 0 6.515625 0 L 1.546875 0 C 1.328125 0 1.164062 -0.0625 1.0625 -0.1875 C 0.957031 -0.320312 0.921875 -0.5 0.953125 -0.71875 L 3.28125 -19.703125 C 3.300781 -19.921875 3.378906 -20.09375 3.515625 -20.21875 C 3.648438 -20.351562 3.820312 -20.421875 4.03125 -20.421875 L 9 -20.421875 C 9.21875 -20.421875 9.382812 -20.351562 9.5 -20.21875 C 9.613281 -20.09375 9.660156 -19.921875 9.640625 -19.703125 L 9.484375 -18.609375 C 9.453125 -18.472656 9.46875 -18.390625 9.53125 -18.359375 C 9.601562 -18.335938 9.675781 -18.378906 9.75 -18.484375 C 10.9375 -19.984375 12.546875 -20.734375 14.578125 -20.734375 Z M 14.578125 -20.734375" transform="translate(252.58 244.002)"/></g></g></g><g fill="#F7F7F7"><g><g><path d="M 14.578125 -20.734375 C 16.390625 -20.734375 17.835938 -20.195312 18.921875 -19.125 C 20.003906 -18.0625 20.546875 -16.582031 20.546875 -14.6875 C 20.546875 -14.457031 20.519531 -14.050781 20.46875 -13.46875 L 18.875 -0.71875 C 18.851562 -0.5 18.773438 -0.320312 18.640625 -0.1875 C 18.515625 -0.0625 18.34375 0 18.125 0 L 13.15625 0 C 12.945312 0 12.78125 -0.0625 12.65625 -0.1875 C 12.539062 -0.320312 12.492188 -0.5 12.515625 -0.71875 L 13.9375 -12.046875 L 13.984375 -12.5625 C 13.984375 -13.320312 13.78125 -13.9375 13.375 -14.40625 C 12.96875 -14.882812 12.40625 -15.125 11.6875 -15.125 C 10.925781 -15.125 10.257812 -14.84375 9.6875 -14.28125 C 9.125 -13.71875 8.789062 -12.972656 8.6875 -12.046875 L 7.3125 -0.71875 C 7.226562 -0.238281 6.960938 0 6.515625 0 L 1.546875 0 C 1.328125 0 1.164062 -0.0625 1.0625 -0.1875 C 0.957031 -0.320312 0.921875 -0.5 0.953125 -0.71875 L 4.140625 -26.9375 C 4.171875 -27.144531 4.257812 -27.316406 4.40625 -27.453125 C 4.550781 -27.585938 4.726562 -27.65625 4.9375 -27.65625 L 9.921875 -27.65625 C 10.367188 -27.65625 10.5625 -27.414062 10.5 -26.9375 L 9.484375 -18.609375 C 9.453125 -18.472656 9.46875 -18.390625 9.53125 -18.359375 C 9.601562 -18.335938 9.675781 -18.378906 9.75 -18.484375 C 10.9375 -19.984375 12.546875 -20.734375 14.578125 -20.734375 Z M 14.578125 -20.734375" transform="translate(273.667 244.002)"/></g></g></g><g fill="#F7F7F7"><g><g><path d="M 15.125 -19.703125 C 15.207031 -20.179688 15.472656 -20.421875 15.921875 -20.421875 L 20.890625 -20.421875 C 21.109375 -20.421875 21.269531 -20.351562 21.375 -20.21875 C 21.476562 -20.09375 21.515625 -19.921875 21.484375 -19.703125 L 19.15625 -0.71875 C 19.132812 -0.5 19.054688 -0.320312 18.921875 -0.1875 C 18.785156 -0.0625 18.613281 0 18.40625 0 L 13.4375 0 C 13.21875 0 13.050781 -0.0625 12.9375 -0.1875 C 12.820312 -0.320312 12.773438 -0.5 12.796875 -0.71875 L 12.921875 -1.65625 C 12.941406 -1.789062 12.921875 -1.867188 12.859375 -1.890625 C 12.796875 -1.921875 12.722656 -1.882812 12.640625 -1.78125 C 11.453125 -0.382812 9.910156 0.3125 8.015625 0.3125 C 6.359375 0.3125 4.890625 -0.25 3.609375 -1.375 C 2.335938 -2.507812 1.554688 -3.972656 1.265625 -5.765625 C 1.128906 -6.609375 1.0625 -7.359375 1.0625 -8.015625 C 1.0625 -8.546875 1.113281 -9.3125 1.21875 -10.3125 C 1.4375 -12.101562 1.910156 -13.757812 2.640625 -15.28125 C 3.429688 -16.914062 4.546875 -18.238281 5.984375 -19.25 C 7.421875 -20.269531 8.957031 -20.78125 10.59375 -20.78125 C 12.5625 -20.78125 13.941406 -20.171875 14.734375 -18.953125 C 14.785156 -18.847656 14.847656 -18.804688 14.921875 -18.828125 C 15.003906 -18.859375 15.046875 -18.941406 15.046875 -19.078125 Z M 12.875 -6.953125 C 13.425781 -7.847656 13.78125 -8.925781 13.9375 -10.1875 C 13.988281 -10.820312 14.015625 -11.257812 14.015625 -11.5 C 14.015625 -12.363281 13.898438 -13.085938 13.671875 -13.671875 C 13.242188 -14.566406 12.554688 -15.015625 11.609375 -15.015625 C 10.609375 -15.015625 9.789062 -14.550781 9.15625 -13.625 C 8.601562 -12.8125 8.222656 -11.664062 8.015625 -10.1875 C 7.960938 -9.664062 7.9375 -9.296875 7.9375 -9.078125 C 7.9375 -8.242188 8.054688 -7.519531 8.296875 -6.90625 C 8.660156 -5.9375 9.367188 -5.453125 10.421875 -5.453125 C 11.421875 -5.453125 12.238281 -5.953125 12.875 -6.953125 Z M 12.875 -6.953125" transform="translate(294.756 244.002)"/></g></g></g><g fill="#41C1BA"><g><g><path d="M 8.640625 0.25 C 6.410156 0.25 4.660156 -0.25 3.390625 -1.25 C 2.117188 -2.257812 1.484375 -3.617188 1.484375 -5.328125 C 1.484375 -5.523438 1.503906 -5.816406 1.546875 -6.203125 L 1.640625 -6.875 C 1.679688 -7.21875 1.863281 -7.390625 2.1875 -7.390625 L 4.75 -7.390625 C 5.070312 -7.390625 5.210938 -7.226562 5.171875 -6.90625 L 5.109375 -6.390625 L 5.078125 -6.046875 C 5.078125 -5.140625 5.457031 -4.394531 6.21875 -3.8125 C 6.976562 -3.238281 8.015625 -2.953125 9.328125 -2.953125 C 10.671875 -2.953125 11.707031 -3.273438 12.4375 -3.921875 C 13.164062 -4.566406 13.53125 -5.367188 13.53125 -6.328125 C 13.53125 -7.054688 13.195312 -7.65625 12.53125 -8.125 C 11.863281 -8.601562 10.6875 -9.195312 9 -9.90625 C 7.71875 -10.414062 6.664062 -10.894531 5.84375 -11.34375 C 5.03125 -11.789062 4.347656 -12.378906 3.796875 -13.109375 C 3.253906 -13.835938 2.984375 -14.738281 2.984375 -15.8125 C 2.984375 -17.226562 3.332031 -18.457031 4.03125 -19.5 C 4.726562 -20.550781 5.691406 -21.351562 6.921875 -21.90625 C 8.160156 -22.46875 9.5625 -22.75 11.125 -22.75 C 13.3125 -22.75 15.050781 -22.222656 16.34375 -21.171875 C 17.632812 -20.128906 18.28125 -18.726562 18.28125 -16.96875 C 18.28125 -16.800781 18.257812 -16.523438 18.21875 -16.140625 L 18.15625 -15.71875 C 18.113281 -15.375 17.929688 -15.203125 17.609375 -15.203125 L 15.046875 -15.203125 C 14.890625 -15.203125 14.769531 -15.238281 14.6875 -15.3125 C 14.601562 -15.382812 14.570312 -15.476562 14.59375 -15.59375 L 14.65625 -15.9375 L 14.6875 -16.328125 C 14.6875 -17.242188 14.328125 -18.007812 13.609375 -18.625 C 12.890625 -19.238281 11.878906 -19.546875 10.578125 -19.546875 C 9.328125 -19.546875 8.34375 -19.265625 7.625 -18.703125 C 6.914062 -18.148438 6.5625 -17.359375 6.5625 -16.328125 C 6.5625 -15.796875 6.71875 -15.34375 7.03125 -14.96875 C 7.351562 -14.59375 7.816406 -14.253906 8.421875 -13.953125 C 9.023438 -13.648438 9.945312 -13.253906 11.1875 -12.765625 C 12.488281 -12.222656 13.535156 -11.738281 14.328125 -11.3125 C 15.128906 -10.882812 15.804688 -10.304688 16.359375 -9.578125 C 16.910156 -8.847656 17.1875 -7.9375 17.1875 -6.84375 C 17.1875 -6.695312 17.164062 -6.429688 17.125 -6.046875 C 16.976562 -4.796875 16.535156 -3.691406 15.796875 -2.734375 C 15.054688 -1.785156 14.066406 -1.050781 12.828125 -0.53125 C 11.597656 -0.0078125 10.203125 0.25 8.640625 0.25 Z M 8.640625 0.25" transform="translate(55.74 284.211)"/></g></g></g><g fill="#41C1BA"><g><g><path d="M 8.0625 0.25 C 6.4375 0.25 5.082031 -0.175781 4 -1.03125 C 2.914062 -1.882812 2.234375 -3.070312 1.953125 -4.59375 C 1.828125 -5.15625 1.765625 -5.789062 1.765625 -6.5 C 1.765625 -6.90625 1.804688 -7.492188 1.890625 -8.265625 C 2.066406 -9.609375 2.378906 -10.828125 2.828125 -11.921875 C 3.492188 -13.421875 4.46875 -14.585938 5.75 -15.421875 C 7.039062 -16.265625 8.519531 -16.6875 10.1875 -16.6875 C 11.769531 -16.6875 13.085938 -16.265625 14.140625 -15.421875 C 15.191406 -14.585938 15.867188 -13.429688 16.171875 -11.953125 C 16.296875 -11.359375 16.359375 -10.675781 16.359375 -9.90625 C 16.359375 -9.382812 16.328125 -8.847656 16.265625 -8.296875 C 16.085938 -6.960938 15.765625 -5.738281 15.296875 -4.625 C 14.628906 -3.101562 13.660156 -1.910156 12.390625 -1.046875 C 11.117188 -0.179688 9.675781 0.25 8.0625 0.25 Z M 8.453125 -2.953125 C 9.222656 -2.953125 9.910156 -3.175781 10.515625 -3.625 C 11.128906 -4.082031 11.597656 -4.71875 11.921875 -5.53125 C 12.265625 -6.238281 12.488281 -7.140625 12.59375 -8.234375 C 12.664062 -8.804688 12.703125 -9.335938 12.703125 -9.828125 C 12.703125 -10.128906 12.675781 -10.492188 12.625 -10.921875 C 12.476562 -11.742188 12.148438 -12.375 11.640625 -12.8125 C 11.140625 -13.25 10.492188 -13.46875 9.703125 -13.46875 C 8.910156 -13.46875 8.207031 -13.25 7.59375 -12.8125 C 6.988281 -12.375 6.515625 -11.742188 6.171875 -10.921875 C 5.867188 -10.109375 5.65625 -9.210938 5.53125 -8.234375 C 5.46875 -7.691406 5.4375 -7.164062 5.4375 -6.65625 C 5.4375 -6.332031 5.457031 -5.957031 5.5 -5.53125 C 5.644531 -4.71875 5.972656 -4.082031 6.484375 -3.625 C 7.003906 -3.175781 7.660156 -2.953125 8.453125 -2.953125 Z M 8.453125 -2.953125" transform="translate(74.127 284.211)"/></g></g></g><g fill="#41C1BA"><g><g><path d="M 11.5 -16.453125 C 11.65625 -16.453125 11.769531 -16.40625 11.84375 -16.3125 C 11.914062 -16.21875 11.941406 -16.09375 11.921875 -15.9375 L 11.671875 -13.65625 C 11.609375 -13.3125 11.414062 -13.140625 11.09375 -13.140625 L 8.15625 -13.140625 C 8.050781 -13.140625 7.976562 -13.078125 7.9375 -12.953125 L 6.421875 -0.515625 C 6.398438 -0.367188 6.34375 -0.242188 6.25 -0.140625 C 6.15625 -0.046875 6.019531 0 5.84375 0 L 3.25 0 C 2.90625 0 2.753906 -0.171875 2.796875 -0.515625 L 4.34375 -12.953125 C 4.34375 -13.078125 4.285156 -13.140625 4.171875 -13.140625 L 2.375 -13.140625 C 2.226562 -13.140625 2.113281 -13.1875 2.03125 -13.28125 C 1.957031 -13.382812 1.929688 -13.507812 1.953125 -13.65625 L 2.25 -15.9375 C 2.289062 -16.28125 2.472656 -16.453125 2.796875 -16.453125 L 4.5625 -16.453125 C 4.6875 -16.453125 4.757812 -16.519531 4.78125 -16.65625 L 4.859375 -17.1875 C 5.023438 -18.582031 5.332031 -19.660156 5.78125 -20.421875 C 6.226562 -21.179688 6.875 -21.722656 7.71875 -22.046875 C 8.570312 -22.367188 9.738281 -22.519531 11.21875 -22.5 L 12.1875 -22.5 C 12.351562 -22.5 12.46875 -22.445312 12.53125 -22.34375 C 12.59375 -22.25 12.613281 -22.128906 12.59375 -21.984375 L 12.375 -19.984375 C 12.351562 -19.835938 12.289062 -19.71875 12.1875 -19.625 C 12.09375 -19.53125 11.960938 -19.484375 11.796875 -19.484375 L 11.125 -19.484375 C 10.21875 -19.484375 9.570312 -19.300781 9.1875 -18.9375 C 8.800781 -18.570312 8.554688 -17.90625 8.453125 -16.9375 L 8.390625 -16.65625 C 8.390625 -16.519531 8.453125 -16.453125 8.578125 -16.453125 Z M 11.5 -16.453125" transform="translate(91.485 284.211)"/></g></g></g><g fill="#41C1BA"><g><g><path d="M 11.46875 -13.921875 C 11.445312 -13.765625 11.390625 -13.640625 11.296875 -13.546875 C 11.203125 -13.453125 11.066406 -13.40625 10.890625 -13.40625 L 7.875 -13.40625 C 7.75 -13.40625 7.6875 -13.335938 7.6875 -13.203125 L 6.75 -5.625 C 6.726562 -5.476562 6.71875 -5.273438 6.71875 -5.015625 C 6.71875 -4.410156 6.875 -3.96875 7.1875 -3.6875 C 7.5 -3.414062 7.972656 -3.28125 8.609375 -3.28125 L 9.421875 -3.28125 C 9.585938 -3.28125 9.703125 -3.226562 9.765625 -3.125 C 9.835938 -3.03125 9.859375 -2.910156 9.828125 -2.765625 L 9.578125 -0.609375 C 9.535156 -0.285156 9.351562 -0.101562 9.03125 -0.0625 L 7.515625 -0.03125 C 6.035156 -0.03125 4.921875 -0.265625 4.171875 -0.734375 C 3.421875 -1.210938 3.046875 -2.082031 3.046875 -3.34375 C 3.046875 -3.488281 3.070312 -3.773438 3.125 -4.203125 L 4.203125 -13.203125 C 4.203125 -13.335938 4.148438 -13.40625 4.046875 -13.40625 L 2.40625 -13.40625 C 2.257812 -13.40625 2.144531 -13.453125 2.0625 -13.546875 C 1.988281 -13.640625 1.96875 -13.765625 2 -13.921875 L 2.25 -15.90625 C 2.289062 -16.25 2.472656 -16.421875 2.796875 -16.421875 L 4.40625 -16.421875 C 4.53125 -16.421875 4.601562 -16.484375 4.625 -16.609375 L 5.078125 -20.21875 C 5.097656 -20.363281 5.15625 -20.484375 5.25 -20.578125 C 5.351562 -20.679688 5.476562 -20.734375 5.625 -20.734375 L 8.09375 -20.734375 C 8.269531 -20.734375 8.390625 -20.679688 8.453125 -20.578125 C 8.515625 -20.484375 8.535156 -20.363281 8.515625 -20.21875 L 8.09375 -16.609375 C 8.070312 -16.566406 8.078125 -16.523438 8.109375 -16.484375 C 8.140625 -16.441406 8.191406 -16.421875 8.265625 -16.421875 L 11.28125 -16.421875 C 11.445312 -16.421875 11.5625 -16.375 11.625 -16.28125 C 11.695312 -16.1875 11.722656 -16.0625 11.703125 -15.90625 Z M 11.46875 -13.921875" transform="translate(103.218 284.211)"/></g></g></g><g fill="#41C1BA"><g><g><path d="M 5.171875 0 C 4.890625 0 4.71875 -0.140625 4.65625 -0.421875 L 2.15625 -15.84375 L 2.15625 -15.90625 C 2.15625 -16.25 2.328125 -16.421875 2.671875 -16.421875 L 5.40625 -16.421875 C 5.695312 -16.421875 5.84375 -16.269531 5.84375 -15.96875 L 7.140625 -5.4375 C 7.140625 -5.34375 7.171875 -5.296875 7.234375 -5.296875 C 7.296875 -5.296875 7.335938 -5.34375 7.359375 -5.4375 L 11.3125 -15.96875 C 11.414062 -16.269531 11.617188 -16.421875 11.921875 -16.421875 L 14.328125 -16.421875 C 14.628906 -16.421875 14.800781 -16.269531 14.84375 -15.96875 L 16.296875 -5.40625 C 16.296875 -5.3125 16.328125 -5.265625 16.390625 -5.265625 C 16.453125 -5.265625 16.492188 -5.3125 16.515625 -5.40625 L 20.5 -15.96875 C 20.539062 -16.125 20.617188 -16.238281 20.734375 -16.3125 C 20.859375 -16.382812 20.984375 -16.421875 21.109375 -16.421875 L 23.8125 -16.390625 C 23.988281 -16.390625 24.109375 -16.335938 24.171875 -16.234375 C 24.234375 -16.128906 24.234375 -15.988281 24.171875 -15.8125 L 17.84375 -0.421875 C 17.707031 -0.140625 17.503906 0 17.234375 0 L 14.46875 0 C 14.1875 0 14.015625 -0.140625 13.953125 -0.421875 L 12.46875 -10.03125 C 12.445312 -10.113281 12.40625 -10.15625 12.34375 -10.15625 C 12.28125 -10.15625 12.238281 -10.113281 12.21875 -10.03125 L 8.578125 -0.453125 C 8.453125 -0.148438 8.238281 0 7.9375 0 Z M 5.171875 0" transform="translate(114.886 284.211)"/></g></g></g><g fill="#41C1BA"><g><g><path d="M 12.921875 -15.90625 C 12.941406 -16.0625 13 -16.1875 13.09375 -16.28125 C 13.1875 -16.375 13.320312 -16.421875 13.5 -16.421875 L 16.109375 -16.421875 C 16.441406 -16.421875 16.585938 -16.25 16.546875 -15.90625 L 14.65625 -0.515625 C 14.632812 -0.367188 14.570312 -0.242188 14.46875 -0.140625 C 14.375 -0.046875 14.242188 0 14.078125 0 L 11.46875 0 C 11.125 0 10.976562 -0.171875 11.03125 -0.515625 L 11.125 -1.28125 C 11.144531 -1.375 11.125 -1.429688 11.0625 -1.453125 C 11.007812 -1.472656 10.960938 -1.445312 10.921875 -1.375 C 9.898438 -0.289062 8.660156 0.25 7.203125 0.25 C 5.742188 0.25 4.546875 -0.148438 3.609375 -0.953125 C 2.679688 -1.753906 2.066406 -2.851562 1.765625 -4.25 C 1.640625 -4.925781 1.578125 -5.628906 1.578125 -6.359375 C 1.578125 -7.046875 1.617188 -7.679688 1.703125 -8.265625 C 1.867188 -9.765625 2.203125 -11.070312 2.703125 -12.1875 C 3.335938 -13.59375 4.21875 -14.691406 5.34375 -15.484375 C 6.46875 -16.285156 7.78125 -16.6875 9.28125 -16.6875 C 10.695312 -16.6875 11.8125 -16.179688 12.625 -15.171875 C 12.675781 -15.085938 12.722656 -15.054688 12.765625 -15.078125 C 12.804688 -15.097656 12.835938 -15.148438 12.859375 -15.234375 Z M 10.765625 -4.5 C 11.347656 -5.332031 11.742188 -6.578125 11.953125 -8.234375 C 12.015625 -8.785156 12.046875 -9.285156 12.046875 -9.734375 C 12.046875 -10.703125 11.910156 -11.472656 11.640625 -12.046875 C 11.203125 -12.992188 10.484375 -13.46875 9.484375 -13.46875 C 8.410156 -13.46875 7.519531 -13.015625 6.8125 -12.109375 C 6.082031 -11.148438 5.625 -9.847656 5.4375 -8.203125 C 5.363281 -7.679688 5.328125 -7.207031 5.328125 -6.78125 C 5.328125 -5.90625 5.457031 -5.15625 5.71875 -4.53125 C 6.144531 -3.5 6.957031 -2.984375 8.15625 -2.984375 C 9.1875 -2.984375 10.054688 -3.488281 10.765625 -4.5 Z M 10.765625 -4.5" transform="translate(138.609 284.211)"/></g></g></g><g fill="#41C1BA"><g><g><path d="M 10.765625 -16.609375 C 11.410156 -16.609375 11.945312 -16.492188 12.375 -16.265625 C 12.613281 -16.140625 12.675781 -15.925781 12.5625 -15.625 L 11.765625 -12.953125 C 11.703125 -12.785156 11.617188 -12.675781 11.515625 -12.625 C 11.421875 -12.582031 11.289062 -12.582031 11.125 -12.625 C 10.882812 -12.71875 10.5625 -12.765625 10.15625 -12.765625 C 9.894531 -12.765625 9.691406 -12.753906 9.546875 -12.734375 C 8.671875 -12.679688 7.90625 -12.359375 7.25 -11.765625 C 6.59375 -11.179688 6.203125 -10.421875 6.078125 -9.484375 L 4.984375 -0.515625 C 4.960938 -0.367188 4.898438 -0.242188 4.796875 -0.140625 C 4.703125 -0.046875 4.582031 0 4.4375 0 L 1.796875 0 C 1.648438 0 1.535156 -0.046875 1.453125 -0.140625 C 1.378906 -0.242188 1.351562 -0.367188 1.375 -0.515625 L 3.28125 -15.90625 C 3.320312 -16.25 3.503906 -16.421875 3.828125 -16.421875 L 6.421875 -16.421875 C 6.765625 -16.421875 6.914062 -16.25 6.875 -15.90625 L 6.71875 -14.65625 C 6.71875 -14.570312 6.734375 -14.519531 6.765625 -14.5 C 6.796875 -14.476562 6.84375 -14.507812 6.90625 -14.59375 C 7.914062 -15.9375 9.203125 -16.609375 10.765625 -16.609375 Z M 10.765625 -16.609375" transform="translate(155.774 284.211)"/></g></g></g><g fill="#41C1BA"><g><g><path d="M 8.8125 -2.890625 C 9.5625 -2.910156 10.242188 -3.078125 10.859375 -3.390625 C 11.484375 -3.703125 12 -4.125 12.40625 -4.65625 C 12.507812 -4.832031 12.660156 -4.921875 12.859375 -4.921875 C 12.941406 -4.921875 13.023438 -4.890625 13.109375 -4.828125 L 14.46875 -3.59375 C 14.59375 -3.46875 14.65625 -3.34375 14.65625 -3.21875 C 14.65625 -3.101562 14.613281 -2.992188 14.53125 -2.890625 C 13.800781 -1.910156 12.878906 -1.140625 11.765625 -0.578125 C 10.648438 -0.0234375 9.414062 0.25 8.0625 0.25 C 6.414062 0.25 5.085938 -0.148438 4.078125 -0.953125 C 3.078125 -1.753906 2.414062 -2.875 2.09375 -4.3125 C 1.9375 -4.96875 1.859375 -5.738281 1.859375 -6.625 C 1.859375 -7.15625 1.890625 -7.710938 1.953125 -8.296875 C 2.128906 -9.753906 2.378906 -10.890625 2.703125 -11.703125 C 3.273438 -13.222656 4.203125 -14.429688 5.484375 -15.328125 C 6.773438 -16.234375 8.25 -16.6875 9.90625 -16.6875 C 12 -16.6875 13.519531 -16.0625 14.46875 -14.8125 C 15.425781 -13.570312 15.90625 -11.796875 15.90625 -9.484375 C 15.90625 -8.835938 15.875 -8.160156 15.8125 -7.453125 C 15.789062 -7.304688 15.726562 -7.179688 15.625 -7.078125 C 15.53125 -6.984375 15.410156 -6.9375 15.265625 -6.9375 L 5.59375 -6.9375 C 5.488281 -6.9375 5.414062 -6.875 5.375 -6.75 L 5.328125 -6.078125 C 5.328125 -5.085938 5.632812 -4.304688 6.25 -3.734375 C 6.863281 -3.171875 7.71875 -2.890625 8.8125 -2.890625 Z M 9.484375 -13.46875 C 8.691406 -13.46875 8.015625 -13.269531 7.453125 -12.875 C 6.898438 -12.476562 6.484375 -11.925781 6.203125 -11.21875 C 6.078125 -10.957031 5.9375 -10.507812 5.78125 -9.875 C 5.757812 -9.738281 5.800781 -9.671875 5.90625 -9.671875 L 12.1875 -9.671875 C 12.3125 -9.671875 12.382812 -9.738281 12.40625 -9.875 C 12.40625 -10.445312 12.394531 -10.832031 12.375 -11.03125 C 12.269531 -11.78125 11.960938 -12.375 11.453125 -12.8125 C 10.953125 -13.25 10.296875 -13.46875 9.484375 -13.46875 Z M 9.484375 -13.46875" transform="translate(167.507 284.211)"/></g></g></g><g fill="#41C1BA"><g><g><path d="M 2.15625 0 C 1.8125 0 1.660156 -0.171875 1.703125 -0.515625 L 4.34375 -21.984375 C 4.40625 -22.328125 4.597656 -22.5 4.921875 -22.5 L 12.40625 -22.5 C 14.4375 -22.5 16.050781 -21.992188 17.25 -20.984375 C 18.457031 -19.984375 19.0625 -18.613281 19.0625 -16.875 C 19.0625 -16.65625 19.039062 -16.332031 19 -15.90625 L 17.875 -6.59375 C 17.613281 -4.570312 16.734375 -2.96875 15.234375 -1.78125 C 13.734375 -0.59375 11.867188 0 9.640625 0 Z M 5.6875 -3.40625 C 5.664062 -3.28125 5.71875 -3.21875 5.84375 -3.21875 L 10.1875 -3.21875 C 11.28125 -3.21875 12.203125 -3.578125 12.953125 -4.296875 C 13.703125 -5.015625 14.148438 -5.972656 14.296875 -7.171875 L 15.328125 -15.296875 C 15.347656 -15.453125 15.359375 -15.675781 15.359375 -15.96875 C 15.359375 -17 15.066406 -17.804688 14.484375 -18.390625 C 13.910156 -18.984375 13.117188 -19.28125 12.109375 -19.28125 L 7.8125 -19.28125 C 7.6875 -19.28125 7.625 -19.21875 7.625 -19.09375 Z M 5.6875 -3.40625" transform="translate(190.65 284.211)"/></g></g></g><g fill="#41C1BA"><g><g><path d="M 8.8125 -2.890625 C 9.5625 -2.910156 10.242188 -3.078125 10.859375 -3.390625 C 11.484375 -3.703125 12 -4.125 12.40625 -4.65625 C 12.507812 -4.832031 12.660156 -4.921875 12.859375 -4.921875 C 12.941406 -4.921875 13.023438 -4.890625 13.109375 -4.828125 L 14.46875 -3.59375 C 14.59375 -3.46875 14.65625 -3.34375 14.65625 -3.21875 C 14.65625 -3.101562 14.613281 -2.992188 14.53125 -2.890625 C 13.800781 -1.910156 12.878906 -1.140625 11.765625 -0.578125 C 10.648438 -0.0234375 9.414062 0.25 8.0625 0.25 C 6.414062 0.25 5.085938 -0.148438 4.078125 -0.953125 C 3.078125 -1.753906 2.414062 -2.875 2.09375 -4.3125 C 1.9375 -4.96875 1.859375 -5.738281 1.859375 -6.625 C 1.859375 -7.15625 1.890625 -7.710938 1.953125 -8.296875 C 2.128906 -9.753906 2.378906 -10.890625 2.703125 -11.703125 C 3.273438 -13.222656 4.203125 -14.429688 5.484375 -15.328125 C 6.773438 -16.234375 8.25 -16.6875 9.90625 -16.6875 C 12 -16.6875 13.519531 -16.0625 14.46875 -14.8125 C 15.425781 -13.570312 15.90625 -11.796875 15.90625 -9.484375 C 15.90625 -8.835938 15.875 -8.160156 15.8125 -7.453125 C 15.789062 -7.304688 15.726562 -7.179688 15.625 -7.078125 C 15.53125 -6.984375 15.410156 -6.9375 15.265625 -6.9375 L 5.59375 -6.9375 C 5.488281 -6.9375 5.414062 -6.875 5.375 -6.75 L 5.328125 -6.078125 C 5.328125 -5.085938 5.632812 -4.304688 6.25 -3.734375 C 6.863281 -3.171875 7.71875 -2.890625 8.8125 -2.890625 Z M 9.484375 -13.46875 C 8.691406 -13.46875 8.015625 -13.269531 7.453125 -12.875 C 6.898438 -12.476562 6.484375 -11.925781 6.203125 -11.21875 C 6.078125 -10.957031 5.9375 -10.507812 5.78125 -9.875 C 5.757812 -9.738281 5.800781 -9.671875 5.90625 -9.671875 L 12.1875 -9.671875 C 12.3125 -9.671875 12.382812 -9.738281 12.40625 -9.875 C 12.40625 -10.445312 12.394531 -10.832031 12.375 -11.03125 C 12.269531 -11.78125 11.960938 -12.375 11.453125 -12.8125 C 10.953125 -13.25 10.296875 -13.46875 9.484375 -13.46875 Z M 9.484375 -13.46875" transform="translate(209.905 284.211)"/></g></g></g><g fill="#41C1BA"><g><g><path d="M 5.71875 0 C 5.414062 0 5.253906 -0.140625 5.234375 -0.421875 L 2.1875 -15.84375 L 2.1875 -15.96875 C 2.1875 -16.269531 2.347656 -16.421875 2.671875 -16.421875 L 5.59375 -16.421875 C 5.875 -16.421875 6.046875 -16.28125 6.109375 -16 L 7.78125 -5.328125 C 7.800781 -5.242188 7.835938 -5.203125 7.890625 -5.203125 C 7.941406 -5.203125 7.976562 -5.242188 8 -5.328125 L 12.28125 -15.96875 C 12.40625 -16.269531 12.609375 -16.421875 12.890625 -16.421875 L 15.8125 -16.390625 C 16.09375 -16.390625 16.234375 -16.285156 16.234375 -16.078125 L 16.171875 -15.8125 L 9.390625 -0.421875 C 9.253906 -0.140625 9.050781 0 8.78125 0 Z M 5.71875 0" transform="translate(226.813 284.211)"/></g></g></g><g fill="#41C1BA"><g><g><path d="M 8.8125 -2.890625 C 9.5625 -2.910156 10.242188 -3.078125 10.859375 -3.390625 C 11.484375 -3.703125 12 -4.125 12.40625 -4.65625 C 12.507812 -4.832031 12.660156 -4.921875 12.859375 -4.921875 C 12.941406 -4.921875 13.023438 -4.890625 13.109375 -4.828125 L 14.46875 -3.59375 C 14.59375 -3.46875 14.65625 -3.34375 14.65625 -3.21875 C 14.65625 -3.101562 14.613281 -2.992188 14.53125 -2.890625 C 13.800781 -1.910156 12.878906 -1.140625 11.765625 -0.578125 C 10.648438 -0.0234375 9.414062 0.25 8.0625 0.25 C 6.414062 0.25 5.085938 -0.148438 4.078125 -0.953125 C 3.078125 -1.753906 2.414062 -2.875 2.09375 -4.3125 C 1.9375 -4.96875 1.859375 -5.738281 1.859375 -6.625 C 1.859375 -7.15625 1.890625 -7.710938 1.953125 -8.296875 C 2.128906 -9.753906 2.378906 -10.890625 2.703125 -11.703125 C 3.273438 -13.222656 4.203125 -14.429688 5.484375 -15.328125 C 6.773438 -16.234375 8.25 -16.6875 9.90625 -16.6875 C 12 -16.6875 13.519531 -16.0625 14.46875 -14.8125 C 15.425781 -13.570312 15.90625 -11.796875 15.90625 -9.484375 C 15.90625 -8.835938 15.875 -8.160156 15.8125 -7.453125 C 15.789062 -7.304688 15.726562 -7.179688 15.625 -7.078125 C 15.53125 -6.984375 15.410156 -6.9375 15.265625 -6.9375 L 5.59375 -6.9375 C 5.488281 -6.9375 5.414062 -6.875 5.375 -6.75 L 5.328125 -6.078125 C 5.328125 -5.085938 5.632812 -4.304688 6.25 -3.734375 C 6.863281 -3.171875 7.71875 -2.890625 8.8125 -2.890625 Z M 9.484375 -13.46875 C 8.691406 -13.46875 8.015625 -13.269531 7.453125 -12.875 C 6.898438 -12.476562 6.484375 -11.925781 6.203125 -11.21875 C 6.078125 -10.957031 5.9375 -10.507812 5.78125 -9.875 C 5.757812 -9.738281 5.800781 -9.671875 5.90625 -9.671875 L 12.1875 -9.671875 C 12.3125 -9.671875 12.382812 -9.738281 12.40625 -9.875 C 12.40625 -10.445312 12.394531 -10.832031 12.375 -11.03125 C 12.269531 -11.78125 11.960938 -12.375 11.453125 -12.8125 C 10.953125 -13.25 10.296875 -13.46875 9.484375 -13.46875 Z M 9.484375 -13.46875" transform="translate(242.532 284.211)"/></g></g></g><g fill="#41C1BA"><g><g><path d="M 1.828125 0 C 1.679688 0 1.566406 -0.046875 1.484375 -0.140625 C 1.410156 -0.242188 1.390625 -0.367188 1.421875 -0.515625 L 4.046875 -21.984375 C 4.085938 -22.328125 4.269531 -22.5 4.59375 -22.5 L 7.234375 -22.5 C 7.378906 -22.5 7.488281 -22.445312 7.5625 -22.34375 C 7.644531 -22.25 7.675781 -22.128906 7.65625 -21.984375 L 5.015625 -0.515625 C 4.992188 -0.367188 4.929688 -0.242188 4.828125 -0.140625 C 4.734375 -0.046875 4.613281 0 4.46875 0 Z M 1.828125 0" transform="translate(259.44 284.211)"/></g></g></g><g fill="#41C1BA"><g><g><path d="M 8.0625 0.25 C 6.4375 0.25 5.082031 -0.175781 4 -1.03125 C 2.914062 -1.882812 2.234375 -3.070312 1.953125 -4.59375 C 1.828125 -5.15625 1.765625 -5.789062 1.765625 -6.5 C 1.765625 -6.90625 1.804688 -7.492188 1.890625 -8.265625 C 2.066406 -9.609375 2.378906 -10.828125 2.828125 -11.921875 C 3.492188 -13.421875 4.46875 -14.585938 5.75 -15.421875 C 7.039062 -16.265625 8.519531 -16.6875 10.1875 -16.6875 C 11.769531 -16.6875 13.085938 -16.265625 14.140625 -15.421875 C 15.191406 -14.585938 15.867188 -13.429688 16.171875 -11.953125 C 16.296875 -11.359375 16.359375 -10.675781 16.359375 -9.90625 C 16.359375 -9.382812 16.328125 -8.847656 16.265625 -8.296875 C 16.085938 -6.960938 15.765625 -5.738281 15.296875 -4.625 C 14.628906 -3.101562 13.660156 -1.910156 12.390625 -1.046875 C 11.117188 -0.179688 9.675781 0.25 8.0625 0.25 Z M 8.453125 -2.953125 C 9.222656 -2.953125 9.910156 -3.175781 10.515625 -3.625 C 11.128906 -4.082031 11.597656 -4.71875 11.921875 -5.53125 C 12.265625 -6.238281 12.488281 -7.140625 12.59375 -8.234375 C 12.664062 -8.804688 12.703125 -9.335938 12.703125 -9.828125 C 12.703125 -10.128906 12.675781 -10.492188 12.625 -10.921875 C 12.476562 -11.742188 12.148438 -12.375 11.640625 -12.8125 C 11.140625 -13.25 10.492188 -13.46875 9.703125 -13.46875 C 8.910156 -13.46875 8.207031 -13.25 7.59375 -12.8125 C 6.988281 -12.375 6.515625 -11.742188 6.171875 -10.921875 C 5.867188 -10.109375 5.65625 -9.210938 5.53125 -8.234375 C 5.46875 -7.691406 5.4375 -7.164062 5.4375 -6.65625 C 5.4375 -6.332031 5.457031 -5.957031 5.5 -5.53125 C 5.644531 -4.71875 5.972656 -4.082031 6.484375 -3.625 C 7.003906 -3.175781 7.660156 -2.953125 8.453125 -2.953125 Z M 8.453125 -2.953125" transform="translate(267.026 284.211)"/></g></g></g><g fill="#41C1BA"><g><g><path d="M 16.328125 -12.1875 C 16.453125 -11.519531 16.515625 -10.8125 16.515625 -10.0625 C 16.515625 -9.375 16.472656 -8.738281 16.390625 -8.15625 C 16.222656 -6.65625 15.890625 -5.351562 15.390625 -4.25 C 14.753906 -2.832031 13.878906 -1.726562 12.765625 -0.9375 C 11.648438 -0.144531 10.332031 0.25 8.8125 0.25 C 7.351562 0.25 6.238281 -0.269531 5.46875 -1.3125 C 5.425781 -1.382812 5.378906 -1.410156 5.328125 -1.390625 C 5.285156 -1.378906 5.253906 -1.332031 5.234375 -1.25 L 4.40625 5.5625 C 4.382812 5.707031 4.320312 5.828125 4.21875 5.921875 C 4.125 6.023438 3.992188 6.078125 3.828125 6.078125 L 1.21875 6.078125 C 0.875 6.078125 0.722656 5.90625 0.765625 5.5625 L 3.40625 -15.90625 C 3.46875 -16.25 3.660156 -16.421875 3.984375 -16.421875 L 6.59375 -16.421875 C 6.9375 -16.421875 7.082031 -16.25 7.03125 -15.90625 L 6.9375 -15.078125 C 6.914062 -14.992188 6.929688 -14.9375 6.984375 -14.90625 C 7.046875 -14.882812 7.097656 -14.921875 7.140625 -15.015625 C 8.140625 -16.128906 9.390625 -16.6875 10.890625 -16.6875 C 12.347656 -16.6875 13.546875 -16.28125 14.484375 -15.46875 C 15.429688 -14.664062 16.046875 -13.570312 16.328125 -12.1875 Z M 11.28125 -4.3125 C 12.007812 -5.269531 12.46875 -6.578125 12.65625 -8.234375 C 12.726562 -8.742188 12.765625 -9.210938 12.765625 -9.640625 C 12.765625 -10.535156 12.632812 -11.285156 12.375 -11.890625 C 11.945312 -12.921875 11.132812 -13.4375 9.9375 -13.4375 C 8.90625 -13.4375 8.035156 -12.929688 7.328125 -11.921875 C 6.742188 -11.085938 6.347656 -9.847656 6.140625 -8.203125 C 6.078125 -7.660156 6.046875 -7.15625 6.046875 -6.6875 C 6.046875 -5.71875 6.179688 -4.945312 6.453125 -4.375 C 6.890625 -3.425781 7.609375 -2.953125 8.609375 -2.953125 C 9.679688 -2.953125 10.570312 -3.40625 11.28125 -4.3125 Z M 11.28125 -4.3125" transform="translate(284.384 284.211)"/></g></g></g><g fill="#41C1BA"><g><g><path d="M 8.8125 -2.890625 C 9.5625 -2.910156 10.242188 -3.078125 10.859375 -3.390625 C 11.484375 -3.703125 12 -4.125 12.40625 -4.65625 C 12.507812 -4.832031 12.660156 -4.921875 12.859375 -4.921875 C 12.941406 -4.921875 13.023438 -4.890625 13.109375 -4.828125 L 14.46875 -3.59375 C 14.59375 -3.46875 14.65625 -3.34375 14.65625 -3.21875 C 14.65625 -3.101562 14.613281 -2.992188 14.53125 -2.890625 C 13.800781 -1.910156 12.878906 -1.140625 11.765625 -0.578125 C 10.648438 -0.0234375 9.414062 0.25 8.0625 0.25 C 6.414062 0.25 5.085938 -0.148438 4.078125 -0.953125 C 3.078125 -1.753906 2.414062 -2.875 2.09375 -4.3125 C 1.9375 -4.96875 1.859375 -5.738281 1.859375 -6.625 C 1.859375 -7.15625 1.890625 -7.710938 1.953125 -8.296875 C 2.128906 -9.753906 2.378906 -10.890625 2.703125 -11.703125 C 3.273438 -13.222656 4.203125 -14.429688 5.484375 -15.328125 C 6.773438 -16.234375 8.25 -16.6875 9.90625 -16.6875 C 12 -16.6875 13.519531 -16.0625 14.46875 -14.8125 C 15.425781 -13.570312 15.90625 -11.796875 15.90625 -9.484375 C 15.90625 -8.835938 15.875 -8.160156 15.8125 -7.453125 C 15.789062 -7.304688 15.726562 -7.179688 15.625 -7.078125 C 15.53125 -6.984375 15.410156 -6.9375 15.265625 -6.9375 L 5.59375 -6.9375 C 5.488281 -6.9375 5.414062 -6.875 5.375 -6.75 L 5.328125 -6.078125 C 5.328125 -5.085938 5.632812 -4.304688 6.25 -3.734375 C 6.863281 -3.171875 7.71875 -2.890625 8.8125 -2.890625 Z M 9.484375 -13.46875 C 8.691406 -13.46875 8.015625 -13.269531 7.453125 -12.875 C 6.898438 -12.476562 6.484375 -11.925781 6.203125 -11.21875 C 6.078125 -10.957031 5.9375 -10.507812 5.78125 -9.875 C 5.757812 -9.738281 5.800781 -9.671875 5.90625 -9.671875 L 12.1875 -9.671875 C 12.3125 -9.671875 12.382812 -9.738281 12.40625 -9.875 C 12.40625 -10.445312 12.394531 -10.832031 12.375 -11.03125 C 12.269531 -11.78125 11.960938 -12.375 11.453125 -12.8125 C 10.953125 -13.25 10.296875 -13.46875 9.484375 -13.46875 Z M 9.484375 -13.46875" transform="translate(301.678 284.211)"/></g></g></g><g fill="#41C1BA"><g><g><path d="M 10.765625 -16.609375 C 11.410156 -16.609375 11.945312 -16.492188 12.375 -16.265625 C 12.613281 -16.140625 12.675781 -15.925781 12.5625 -15.625 L 11.765625 -12.953125 C 11.703125 -12.785156 11.617188 -12.675781 11.515625 -12.625 C 11.421875 -12.582031 11.289062 -12.582031 11.125 -12.625 C 10.882812 -12.71875 10.5625 -12.765625 10.15625 -12.765625 C 9.894531 -12.765625 9.691406 -12.753906 9.546875 -12.734375 C 8.671875 -12.679688 7.90625 -12.359375 7.25 -11.765625 C 6.59375 -11.179688 6.203125 -10.421875 6.078125 -9.484375 L 4.984375 -0.515625 C 4.960938 -0.367188 4.898438 -0.242188 4.796875 -0.140625 C 4.703125 -0.046875 4.582031 0 4.4375 0 L 1.796875 0 C 1.648438 0 1.535156 -0.046875 1.453125 -0.140625 C 1.378906 -0.242188 1.351562 -0.367188 1.375 -0.515625 L 3.28125 -15.90625 C 3.320312 -16.25 3.503906 -16.421875 3.828125 -16.421875 L 6.421875 -16.421875 C 6.765625 -16.421875 6.914062 -16.25 6.875 -15.90625 L 6.71875 -14.65625 C 6.71875 -14.570312 6.734375 -14.519531 6.765625 -14.5 C 6.796875 -14.476562 6.84375 -14.507812 6.90625 -14.59375 C 7.914062 -15.9375 9.203125 -16.609375 10.765625 -16.609375 Z M 10.765625 -16.609375" transform="translate(318.586 284.211)"/></g></g></g></svg>